<mxfile host="app.diagrams.net" modified="2023-09-12T14:46:48.166Z" agent="Mozilla/5.0 (Windows NT 10.0; Win64; x64) AppleWebKit/537.36 (KHTML, like Gecko) Chrome/116.0.0.0 Safari/537.36" etag="rtmpokgnu1fPAaP60byk" version="21.7.4" type="github" pages="2">
  <diagram name="create" id="qEhoidJhxsvWi5sl7ZpU">
    <mxGraphModel dx="880" dy="446" grid="1" gridSize="10" guides="1" tooltips="1" connect="1" arrows="1" fold="1" page="1" pageScale="1" pageWidth="850" pageHeight="1100" math="0" shadow="0">
      <root>
        <mxCell id="0" />
        <mxCell id="1" parent="0" />
        <mxCell id="uowi1JtS75DJO2FJJ9U8-1" value="&lt;h1&gt;Crete Top_up&lt;/h1&gt;&lt;div&gt;top up transaction&lt;/div&gt;" style="text;html=1;strokeColor=none;fillColor=none;spacing=5;spacingTop=-20;whiteSpace=wrap;overflow=hidden;rounded=0;" vertex="1" parent="1">
          <mxGeometry x="20" y="10" width="190" height="80" as="geometry" />
        </mxCell>
        <mxCell id="uowi1JtS75DJO2FJJ9U8-2" value="data :&lt;br&gt;- top_up_amount" style="text;html=1;strokeColor=none;fillColor=none;align=center;verticalAlign=middle;whiteSpace=wrap;rounded=0;" vertex="1" parent="1">
          <mxGeometry x="210" y="60" width="120" height="50" as="geometry" />
        </mxCell>
        <mxCell id="uowi1JtS75DJO2FJJ9U8-5" value="" style="edgeStyle=orthogonalEdgeStyle;rounded=0;orthogonalLoop=1;jettySize=auto;html=1;" edge="1" parent="1">
          <mxGeometry relative="1" as="geometry">
            <mxPoint x="83" y="160" as="sourcePoint" />
            <mxPoint x="83" y="190" as="targetPoint" />
          </mxGeometry>
        </mxCell>
        <mxCell id="uowi1JtS75DJO2FJJ9U8-3" value="hit endpoint with data" style="ellipse;whiteSpace=wrap;html=1;" vertex="1" parent="1">
          <mxGeometry x="40" y="100" width="110" height="60" as="geometry" />
        </mxCell>
        <mxCell id="uowi1JtS75DJO2FJJ9U8-7" value="" style="edgeStyle=orthogonalEdgeStyle;rounded=0;orthogonalLoop=1;jettySize=auto;html=1;" edge="1" parent="1">
          <mxGeometry relative="1" as="geometry">
            <mxPoint x="83" y="250" as="sourcePoint" />
            <mxPoint x="83" y="300" as="targetPoint" />
          </mxGeometry>
        </mxCell>
        <mxCell id="uowi1JtS75DJO2FJJ9U8-17" value="" style="edgeStyle=orthogonalEdgeStyle;rounded=0;orthogonalLoop=1;jettySize=auto;html=1;" edge="1" parent="1" source="uowi1JtS75DJO2FJJ9U8-4" target="uowi1JtS75DJO2FJJ9U8-16">
          <mxGeometry relative="1" as="geometry" />
        </mxCell>
        <mxCell id="uowi1JtS75DJO2FJJ9U8-4" value="&#xa;&lt;span style=&quot;color: rgb(0, 0, 0); font-family: Helvetica; font-size: 12px; font-style: normal; font-variant-ligatures: normal; font-variant-caps: normal; font-weight: 400; letter-spacing: normal; orphans: 2; text-align: center; text-indent: 0px; text-transform: none; widows: 2; word-spacing: 0px; -webkit-text-stroke-width: 0px; background-color: rgb(251, 251, 251); text-decoration-thickness: initial; text-decoration-style: initial; text-decoration-color: initial; float: none; display: inline !important;&quot;&gt;process In controller&lt;/span&gt;&#xa;&#xa;" style="whiteSpace=wrap;html=1;" vertex="1" parent="1">
          <mxGeometry x="35" y="190" width="120" height="60" as="geometry" />
        </mxCell>
        <mxCell id="uowi1JtS75DJO2FJJ9U8-9" value="" style="edgeStyle=orthogonalEdgeStyle;rounded=0;orthogonalLoop=1;jettySize=auto;html=1;" edge="1" parent="1">
          <mxGeometry relative="1" as="geometry">
            <mxPoint x="81" y="360" as="sourcePoint" />
            <mxPoint x="81" y="400" as="targetPoint" />
          </mxGeometry>
        </mxCell>
        <mxCell id="uowi1JtS75DJO2FJJ9U8-14" value="" style="edgeStyle=orthogonalEdgeStyle;rounded=0;orthogonalLoop=1;jettySize=auto;html=1;" edge="1" parent="1">
          <mxGeometry relative="1" as="geometry">
            <mxPoint x="99" y="300" as="sourcePoint" />
            <mxPoint x="99" y="250" as="targetPoint" />
          </mxGeometry>
        </mxCell>
        <mxCell id="uowi1JtS75DJO2FJJ9U8-6" value="process In usecase" style="whiteSpace=wrap;html=1;" vertex="1" parent="1">
          <mxGeometry x="35" y="300" width="120" height="60" as="geometry" />
        </mxCell>
        <mxCell id="uowi1JtS75DJO2FJJ9U8-11" value="" style="edgeStyle=orthogonalEdgeStyle;rounded=0;orthogonalLoop=1;jettySize=auto;html=1;" edge="1" parent="1">
          <mxGeometry relative="1" as="geometry">
            <mxPoint x="81" y="460" as="sourcePoint" />
            <mxPoint x="81" y="500" as="targetPoint" />
          </mxGeometry>
        </mxCell>
        <mxCell id="uowi1JtS75DJO2FJJ9U8-13" value="" style="edgeStyle=orthogonalEdgeStyle;rounded=0;orthogonalLoop=1;jettySize=auto;html=1;" edge="1" parent="1">
          <mxGeometry relative="1" as="geometry">
            <mxPoint x="99" y="400" as="sourcePoint" />
            <mxPoint x="99" y="360" as="targetPoint" />
          </mxGeometry>
        </mxCell>
        <mxCell id="uowi1JtS75DJO2FJJ9U8-8" value="process In repository" style="whiteSpace=wrap;html=1;" vertex="1" parent="1">
          <mxGeometry x="35" y="400" width="120" height="60" as="geometry" />
        </mxCell>
        <mxCell id="uowi1JtS75DJO2FJJ9U8-12" value="" style="edgeStyle=orthogonalEdgeStyle;rounded=0;orthogonalLoop=1;jettySize=auto;html=1;" edge="1" parent="1">
          <mxGeometry relative="1" as="geometry">
            <mxPoint x="105" y="500" as="sourcePoint" />
            <mxPoint x="105" y="460" as="targetPoint" />
          </mxGeometry>
        </mxCell>
        <mxCell id="uowi1JtS75DJO2FJJ9U8-10" value="update in database" style="shape=cylinder3;whiteSpace=wrap;html=1;boundedLbl=1;backgroundOutline=1;size=15;" vertex="1" parent="1">
          <mxGeometry x="65" y="500" width="60" height="80" as="geometry" />
        </mxCell>
        <mxCell id="uowi1JtS75DJO2FJJ9U8-16" value="return api" style="shape=parallelogram;perimeter=parallelogramPerimeter;whiteSpace=wrap;html=1;fixedSize=1;" vertex="1" parent="1">
          <mxGeometry x="200" y="190" width="120" height="60" as="geometry" />
        </mxCell>
        <mxCell id="uowi1JtS75DJO2FJJ9U8-18" value="&lt;h1 style=&quot;border-color: var(--border-color);&quot;&gt;Controller&lt;/h1&gt;&lt;h1&gt;&lt;div style=&quot;border-color: var(--border-color); font-size: 12px; font-weight: 400;&quot;&gt;Process in controller layer&lt;/div&gt;&lt;/h1&gt;" style="text;html=1;strokeColor=none;fillColor=none;spacing=5;spacingTop=-20;whiteSpace=wrap;overflow=hidden;rounded=0;" vertex="1" parent="1">
          <mxGeometry x="420" y="30" width="190" height="80" as="geometry" />
        </mxCell>
        <mxCell id="uowi1JtS75DJO2FJJ9U8-19" value="" style="edgeStyle=orthogonalEdgeStyle;rounded=0;orthogonalLoop=1;jettySize=auto;html=1;" edge="1" parent="1" source="uowi1JtS75DJO2FJJ9U8-20" target="uowi1JtS75DJO2FJJ9U8-22">
          <mxGeometry relative="1" as="geometry" />
        </mxCell>
        <mxCell id="uowi1JtS75DJO2FJJ9U8-20" value="start" style="ellipse;whiteSpace=wrap;html=1;" vertex="1" parent="1">
          <mxGeometry x="600" y="55" width="70" height="40" as="geometry" />
        </mxCell>
        <mxCell id="uowi1JtS75DJO2FJJ9U8-21" value="" style="edgeStyle=orthogonalEdgeStyle;rounded=0;orthogonalLoop=1;jettySize=auto;html=1;" edge="1" parent="1" source="uowi1JtS75DJO2FJJ9U8-22" target="uowi1JtS75DJO2FJJ9U8-27">
          <mxGeometry relative="1" as="geometry" />
        </mxCell>
        <mxCell id="uowi1JtS75DJO2FJJ9U8-22" value="Accepting data in request body" style="whiteSpace=wrap;html=1;" vertex="1" parent="1">
          <mxGeometry x="582.5" y="140" width="105" height="45" as="geometry" />
        </mxCell>
        <mxCell id="uowi1JtS75DJO2FJJ9U8-23" value="" style="edgeStyle=orthogonalEdgeStyle;rounded=0;orthogonalLoop=1;jettySize=auto;html=1;" edge="1" parent="1" source="uowi1JtS75DJO2FJJ9U8-27" target="uowi1JtS75DJO2FJJ9U8-28">
          <mxGeometry relative="1" as="geometry" />
        </mxCell>
        <mxCell id="uowi1JtS75DJO2FJJ9U8-24" value="no" style="edgeLabel;html=1;align=center;verticalAlign=middle;resizable=0;points=[];" vertex="1" connectable="0" parent="uowi1JtS75DJO2FJJ9U8-23">
          <mxGeometry x="-0.0571" relative="1" as="geometry">
            <mxPoint y="1" as="offset" />
          </mxGeometry>
        </mxCell>
        <mxCell id="uowi1JtS75DJO2FJJ9U8-25" value="" style="edgeStyle=orthogonalEdgeStyle;rounded=0;orthogonalLoop=1;jettySize=auto;html=1;" edge="1" parent="1" source="uowi1JtS75DJO2FJJ9U8-27" target="uowi1JtS75DJO2FJJ9U8-31">
          <mxGeometry relative="1" as="geometry" />
        </mxCell>
        <mxCell id="uowi1JtS75DJO2FJJ9U8-26" value="go to usecase" style="edgeLabel;html=1;align=center;verticalAlign=middle;resizable=0;points=[];" vertex="1" connectable="0" parent="uowi1JtS75DJO2FJJ9U8-25">
          <mxGeometry x="-0.1444" y="4" relative="1" as="geometry">
            <mxPoint as="offset" />
          </mxGeometry>
        </mxCell>
        <mxCell id="uowi1JtS75DJO2FJJ9U8-27" value="success accept data" style="rhombus;whiteSpace=wrap;html=1;" vertex="1" parent="1">
          <mxGeometry x="595" y="247.5" width="80" height="80" as="geometry" />
        </mxCell>
        <mxCell id="uowi1JtS75DJO2FJJ9U8-28" value="return error to api" style="shape=parallelogram;perimeter=parallelogramPerimeter;whiteSpace=wrap;html=1;fixedSize=1;" vertex="1" parent="1">
          <mxGeometry x="716" y="257.5" width="120" height="60" as="geometry" />
        </mxCell>
        <mxCell id="uowi1JtS75DJO2FJJ9U8-29" value="" style="edgeStyle=orthogonalEdgeStyle;rounded=0;orthogonalLoop=1;jettySize=auto;html=1;" edge="1" parent="1" source="uowi1JtS75DJO2FJJ9U8-31">
          <mxGeometry relative="1" as="geometry">
            <mxPoint x="635" y="557.5" as="targetPoint" />
          </mxGeometry>
        </mxCell>
        <mxCell id="uowi1JtS75DJO2FJJ9U8-30" value="return result" style="edgeLabel;html=1;align=center;verticalAlign=middle;resizable=0;points=[];" vertex="1" connectable="0" parent="uowi1JtS75DJO2FJJ9U8-29">
          <mxGeometry x="0.0125" y="1" relative="1" as="geometry">
            <mxPoint as="offset" />
          </mxGeometry>
        </mxCell>
        <mxCell id="uowi1JtS75DJO2FJJ9U8-31" value="Process in usecase" style="whiteSpace=wrap;html=1;" vertex="1" parent="1">
          <mxGeometry x="575" y="417.5" width="120" height="60" as="geometry" />
        </mxCell>
        <mxCell id="uowi1JtS75DJO2FJJ9U8-32" value="" style="edgeStyle=orthogonalEdgeStyle;rounded=0;orthogonalLoop=1;jettySize=auto;html=1;" edge="1" parent="1" source="uowi1JtS75DJO2FJJ9U8-36" target="uowi1JtS75DJO2FJJ9U8-37">
          <mxGeometry relative="1" as="geometry" />
        </mxCell>
        <mxCell id="uowi1JtS75DJO2FJJ9U8-33" value="yes" style="edgeLabel;html=1;align=center;verticalAlign=middle;resizable=0;points=[];" vertex="1" connectable="0" parent="uowi1JtS75DJO2FJJ9U8-32">
          <mxGeometry x="-0.1714" y="1" relative="1" as="geometry">
            <mxPoint as="offset" />
          </mxGeometry>
        </mxCell>
        <mxCell id="uowi1JtS75DJO2FJJ9U8-34" value="" style="edgeStyle=orthogonalEdgeStyle;rounded=0;orthogonalLoop=1;jettySize=auto;html=1;" edge="1" parent="1" source="uowi1JtS75DJO2FJJ9U8-36" target="uowi1JtS75DJO2FJJ9U8-38">
          <mxGeometry relative="1" as="geometry" />
        </mxCell>
        <mxCell id="uowi1JtS75DJO2FJJ9U8-35" value="no" style="edgeLabel;html=1;align=center;verticalAlign=middle;resizable=0;points=[];" vertex="1" connectable="0" parent="uowi1JtS75DJO2FJJ9U8-34">
          <mxGeometry x="-0.1714" y="-2" relative="1" as="geometry">
            <mxPoint as="offset" />
          </mxGeometry>
        </mxCell>
        <mxCell id="uowi1JtS75DJO2FJJ9U8-36" value="get error resutl?" style="rhombus;whiteSpace=wrap;html=1;" vertex="1" parent="1">
          <mxGeometry x="595" y="560" width="80" height="80" as="geometry" />
        </mxCell>
        <mxCell id="uowi1JtS75DJO2FJJ9U8-37" value="return error to api" style="shape=parallelogram;perimeter=parallelogramPerimeter;whiteSpace=wrap;html=1;fixedSize=1;" vertex="1" parent="1">
          <mxGeometry x="415" y="570" width="120" height="60" as="geometry" />
        </mxCell>
        <mxCell id="uowi1JtS75DJO2FJJ9U8-38" value="return massage success delete data to API" style="shape=parallelogram;perimeter=parallelogramPerimeter;whiteSpace=wrap;html=1;fixedSize=1;" vertex="1" parent="1">
          <mxGeometry x="722" y="570" width="120" height="60" as="geometry" />
        </mxCell>
        <mxCell id="uowi1JtS75DJO2FJJ9U8-39" value="&lt;h1&gt;Usecase&lt;/h1&gt;&lt;div&gt;process in usecase layer&lt;/div&gt;" style="text;html=1;strokeColor=none;fillColor=none;spacing=5;spacingTop=-20;whiteSpace=wrap;overflow=hidden;rounded=0;" vertex="1" parent="1">
          <mxGeometry x="10" y="660" width="160" height="70" as="geometry" />
        </mxCell>
        <mxCell id="uowi1JtS75DJO2FJJ9U8-42" value="" style="edgeStyle=orthogonalEdgeStyle;rounded=0;orthogonalLoop=1;jettySize=auto;html=1;" edge="1" parent="1" source="uowi1JtS75DJO2FJJ9U8-44" target="uowi1JtS75DJO2FJJ9U8-52">
          <mxGeometry relative="1" as="geometry" />
        </mxCell>
        <mxCell id="uowi1JtS75DJO2FJJ9U8-43" value="no" style="edgeLabel;html=1;align=center;verticalAlign=middle;resizable=0;points=[];" vertex="1" connectable="0" parent="uowi1JtS75DJO2FJJ9U8-42">
          <mxGeometry x="-0.08" y="1" relative="1" as="geometry">
            <mxPoint as="offset" />
          </mxGeometry>
        </mxCell>
        <mxCell id="uowi1JtS75DJO2FJJ9U8-44" value="user.role == pemodal" style="rhombus;whiteSpace=wrap;html=1;" vertex="1" parent="1">
          <mxGeometry x="174" y="880" width="80" height="80" as="geometry" />
        </mxCell>
        <mxCell id="uowi1JtS75DJO2FJJ9U8-45" value="" style="edgeStyle=orthogonalEdgeStyle;rounded=0;orthogonalLoop=1;jettySize=auto;html=1;exitX=0.5;exitY=1;exitDx=0;exitDy=0;" edge="1" parent="1" source="uowi1JtS75DJO2FJJ9U8-44" target="uowi1JtS75DJO2FJJ9U8-51">
          <mxGeometry relative="1" as="geometry">
            <mxPoint x="214" y="1090" as="sourcePoint" />
          </mxGeometry>
        </mxCell>
        <mxCell id="uowi1JtS75DJO2FJJ9U8-61" value="yes" style="edgeLabel;html=1;align=center;verticalAlign=middle;resizable=0;points=[];" vertex="1" connectable="0" parent="uowi1JtS75DJO2FJJ9U8-45">
          <mxGeometry x="-0.2381" y="2" relative="1" as="geometry">
            <mxPoint as="offset" />
          </mxGeometry>
        </mxCell>
        <mxCell id="uowi1JtS75DJO2FJJ9U8-47" value="" style="edgeStyle=orthogonalEdgeStyle;rounded=0;orthogonalLoop=1;jettySize=auto;html=1;" edge="1" parent="1" source="uowi1JtS75DJO2FJJ9U8-51">
          <mxGeometry relative="1" as="geometry">
            <mxPoint x="314" y="1042" as="targetPoint" />
          </mxGeometry>
        </mxCell>
        <mxCell id="uowi1JtS75DJO2FJJ9U8-66" value="yes" style="edgeLabel;html=1;align=center;verticalAlign=middle;resizable=0;points=[];" vertex="1" connectable="0" parent="uowi1JtS75DJO2FJJ9U8-47">
          <mxGeometry x="0.0082" y="-5" relative="1" as="geometry">
            <mxPoint x="-2" as="offset" />
          </mxGeometry>
        </mxCell>
        <mxCell id="uowi1JtS75DJO2FJJ9U8-49" value="" style="edgeStyle=orthogonalEdgeStyle;rounded=0;orthogonalLoop=1;jettySize=auto;html=1;" edge="1" parent="1" source="uowi1JtS75DJO2FJJ9U8-51" target="uowi1JtS75DJO2FJJ9U8-56">
          <mxGeometry relative="1" as="geometry" />
        </mxCell>
        <mxCell id="uowi1JtS75DJO2FJJ9U8-67" value="no" style="edgeLabel;html=1;align=center;verticalAlign=middle;resizable=0;points=[];" vertex="1" connectable="0" parent="uowi1JtS75DJO2FJJ9U8-49">
          <mxGeometry x="-0.2414" y="-2" relative="1" as="geometry">
            <mxPoint as="offset" />
          </mxGeometry>
        </mxCell>
        <mxCell id="uowi1JtS75DJO2FJJ9U8-51" value="top_up_amount == nul" style="rhombus;whiteSpace=wrap;html=1;" vertex="1" parent="1">
          <mxGeometry x="174" y="1002" width="80" height="80" as="geometry" />
        </mxCell>
        <mxCell id="uowi1JtS75DJO2FJJ9U8-52" value="return : you are not allowed to do this." style="shape=parallelogram;perimeter=parallelogramPerimeter;whiteSpace=wrap;html=1;fixedSize=1;" vertex="1" parent="1">
          <mxGeometry x="294" y="890" width="120" height="60" as="geometry" />
        </mxCell>
        <mxCell id="uowi1JtS75DJO2FJJ9U8-53" value="top up amount required" style="shape=parallelogram;perimeter=parallelogramPerimeter;whiteSpace=wrap;html=1;fixedSize=1;" vertex="1" parent="1">
          <mxGeometry x="304" y="1012" width="120" height="60" as="geometry" />
        </mxCell>
        <mxCell id="uowi1JtS75DJO2FJJ9U8-54" value="" style="edgeStyle=orthogonalEdgeStyle;rounded=0;orthogonalLoop=1;jettySize=auto;html=1;exitX=0.5;exitY=1;exitDx=0;exitDy=0;" edge="1" parent="1" source="uowi1JtS75DJO2FJJ9U8-116" target="uowi1JtS75DJO2FJJ9U8-57">
          <mxGeometry relative="1" as="geometry">
            <mxPoint x="210" y="1310" as="sourcePoint" />
          </mxGeometry>
        </mxCell>
        <mxCell id="uowi1JtS75DJO2FJJ9U8-55" value="to repository" style="edgeLabel;html=1;align=center;verticalAlign=middle;resizable=0;points=[];" vertex="1" connectable="0" parent="uowi1JtS75DJO2FJJ9U8-54">
          <mxGeometry x="-0.1373" y="-1" relative="1" as="geometry">
            <mxPoint x="1" y="19" as="offset" />
          </mxGeometry>
        </mxCell>
        <mxCell id="uowi1JtS75DJO2FJJ9U8-68" value="no" style="edgeLabel;html=1;align=center;verticalAlign=middle;resizable=0;points=[];" vertex="1" connectable="0" parent="uowi1JtS75DJO2FJJ9U8-54">
          <mxGeometry x="-0.5068" relative="1" as="geometry">
            <mxPoint as="offset" />
          </mxGeometry>
        </mxCell>
        <mxCell id="uowi1JtS75DJO2FJJ9U8-63" value="" style="edgeStyle=orthogonalEdgeStyle;rounded=0;orthogonalLoop=1;jettySize=auto;html=1;" edge="1" parent="1" source="uowi1JtS75DJO2FJJ9U8-56" target="uowi1JtS75DJO2FJJ9U8-62">
          <mxGeometry relative="1" as="geometry" />
        </mxCell>
        <mxCell id="uowi1JtS75DJO2FJJ9U8-64" value="yes" style="edgeLabel;html=1;align=center;verticalAlign=middle;resizable=0;points=[];" vertex="1" connectable="0" parent="uowi1JtS75DJO2FJJ9U8-63">
          <mxGeometry x="-0.2286" relative="1" as="geometry">
            <mxPoint as="offset" />
          </mxGeometry>
        </mxCell>
        <mxCell id="uowi1JtS75DJO2FJJ9U8-117" value="" style="edgeStyle=orthogonalEdgeStyle;rounded=0;orthogonalLoop=1;jettySize=auto;html=1;" edge="1" parent="1" source="uowi1JtS75DJO2FJJ9U8-56" target="uowi1JtS75DJO2FJJ9U8-116">
          <mxGeometry relative="1" as="geometry" />
        </mxCell>
        <mxCell id="uowi1JtS75DJO2FJJ9U8-56" value="top_up_amount &amp;lt;= 0" style="rhombus;whiteSpace=wrap;html=1;" vertex="1" parent="1">
          <mxGeometry x="174" y="1140" width="80" height="80" as="geometry" />
        </mxCell>
        <mxCell id="uowi1JtS75DJO2FJJ9U8-70" value="" style="edgeStyle=orthogonalEdgeStyle;rounded=0;orthogonalLoop=1;jettySize=auto;html=1;" edge="1" parent="1" source="uowi1JtS75DJO2FJJ9U8-57" target="uowi1JtS75DJO2FJJ9U8-69">
          <mxGeometry relative="1" as="geometry" />
        </mxCell>
        <mxCell id="uowi1JtS75DJO2FJJ9U8-57" value="process create in repository" style="whiteSpace=wrap;html=1;" vertex="1" parent="1">
          <mxGeometry x="154" y="1410" width="120" height="60" as="geometry" />
        </mxCell>
        <mxCell id="uowi1JtS75DJO2FJJ9U8-58" value="usecase update data" style="text;html=1;strokeColor=none;fillColor=none;align=center;verticalAlign=middle;whiteSpace=wrap;rounded=0;" vertex="1" parent="1">
          <mxGeometry x="40" y="775" width="80" height="30" as="geometry" />
        </mxCell>
        <mxCell id="uowi1JtS75DJO2FJJ9U8-59" value="" style="edgeStyle=orthogonalEdgeStyle;rounded=0;orthogonalLoop=1;jettySize=auto;html=1;" edge="1" parent="1" source="uowi1JtS75DJO2FJJ9U8-60" target="uowi1JtS75DJO2FJJ9U8-44">
          <mxGeometry relative="1" as="geometry" />
        </mxCell>
        <mxCell id="uowi1JtS75DJO2FJJ9U8-60" value="data" style="ellipse;whiteSpace=wrap;html=1;" vertex="1" parent="1">
          <mxGeometry x="154" y="740" width="120" height="80" as="geometry" />
        </mxCell>
        <mxCell id="uowi1JtS75DJO2FJJ9U8-62" value="top up amount must grateher than 0" style="shape=parallelogram;perimeter=parallelogramPerimeter;whiteSpace=wrap;html=1;fixedSize=1;" vertex="1" parent="1">
          <mxGeometry x="314" y="1150" width="120" height="60" as="geometry" />
        </mxCell>
        <mxCell id="uowi1JtS75DJO2FJJ9U8-72" value="" style="edgeStyle=orthogonalEdgeStyle;rounded=0;orthogonalLoop=1;jettySize=auto;html=1;" edge="1" parent="1" source="uowi1JtS75DJO2FJJ9U8-69" target="uowi1JtS75DJO2FJJ9U8-71">
          <mxGeometry relative="1" as="geometry" />
        </mxCell>
        <mxCell id="uowi1JtS75DJO2FJJ9U8-73" value="no" style="edgeLabel;html=1;align=center;verticalAlign=middle;resizable=0;points=[];" vertex="1" connectable="0" parent="uowi1JtS75DJO2FJJ9U8-72">
          <mxGeometry x="-0.1429" y="-2" relative="1" as="geometry">
            <mxPoint as="offset" />
          </mxGeometry>
        </mxCell>
        <mxCell id="uowi1JtS75DJO2FJJ9U8-75" value="" style="edgeStyle=orthogonalEdgeStyle;rounded=0;orthogonalLoop=1;jettySize=auto;html=1;" edge="1" parent="1" source="uowi1JtS75DJO2FJJ9U8-78" target="uowi1JtS75DJO2FJJ9U8-74">
          <mxGeometry relative="1" as="geometry" />
        </mxCell>
        <mxCell id="uowi1JtS75DJO2FJJ9U8-83" value="yes" style="edgeLabel;html=1;align=center;verticalAlign=middle;resizable=0;points=[];" vertex="1" connectable="0" parent="uowi1JtS75DJO2FJJ9U8-75">
          <mxGeometry x="-0.1" y="1" relative="1" as="geometry">
            <mxPoint as="offset" />
          </mxGeometry>
        </mxCell>
        <mxCell id="uowi1JtS75DJO2FJJ9U8-69" value="success creaate data" style="rhombus;whiteSpace=wrap;html=1;" vertex="1" parent="1">
          <mxGeometry x="174" y="1508" width="80" height="80" as="geometry" />
        </mxCell>
        <mxCell id="uowi1JtS75DJO2FJJ9U8-71" value="return error" style="shape=parallelogram;perimeter=parallelogramPerimeter;whiteSpace=wrap;html=1;fixedSize=1;" vertex="1" parent="1">
          <mxGeometry x="314" y="1518" width="120" height="60" as="geometry" />
        </mxCell>
        <mxCell id="uowi1JtS75DJO2FJJ9U8-74" value="return data user + virtual_account + deathlinepembayaran" style="shape=parallelogram;perimeter=parallelogramPerimeter;whiteSpace=wrap;html=1;fixedSize=1;" vertex="1" parent="1">
          <mxGeometry x="154" y="1845" width="120" height="60" as="geometry" />
        </mxCell>
        <mxCell id="uowi1JtS75DJO2FJJ9U8-77" value="" style="edgeStyle=orthogonalEdgeStyle;rounded=0;orthogonalLoop=1;jettySize=auto;html=1;" edge="1" parent="1" source="uowi1JtS75DJO2FJJ9U8-69" target="uowi1JtS75DJO2FJJ9U8-76">
          <mxGeometry relative="1" as="geometry">
            <mxPoint x="214" y="1588" as="sourcePoint" />
            <mxPoint x="214" y="1745" as="targetPoint" />
          </mxGeometry>
        </mxCell>
        <mxCell id="uowi1JtS75DJO2FJJ9U8-76" value="find user by id" style="rounded=0;whiteSpace=wrap;html=1;" vertex="1" parent="1">
          <mxGeometry x="154" y="1635" width="120" height="60" as="geometry" />
        </mxCell>
        <mxCell id="uowi1JtS75DJO2FJJ9U8-79" value="" style="edgeStyle=orthogonalEdgeStyle;rounded=0;orthogonalLoop=1;jettySize=auto;html=1;" edge="1" parent="1" source="uowi1JtS75DJO2FJJ9U8-76" target="uowi1JtS75DJO2FJJ9U8-78">
          <mxGeometry relative="1" as="geometry">
            <mxPoint x="214" y="1695" as="sourcePoint" />
            <mxPoint x="214" y="1845" as="targetPoint" />
          </mxGeometry>
        </mxCell>
        <mxCell id="uowi1JtS75DJO2FJJ9U8-81" value="" style="edgeStyle=orthogonalEdgeStyle;rounded=0;orthogonalLoop=1;jettySize=auto;html=1;" edge="1" parent="1" source="uowi1JtS75DJO2FJJ9U8-78" target="uowi1JtS75DJO2FJJ9U8-80">
          <mxGeometry relative="1" as="geometry" />
        </mxCell>
        <mxCell id="uowi1JtS75DJO2FJJ9U8-82" value="no" style="edgeLabel;html=1;align=center;verticalAlign=middle;resizable=0;points=[];" vertex="1" connectable="0" parent="uowi1JtS75DJO2FJJ9U8-81">
          <mxGeometry x="-0.2571" y="-1" relative="1" as="geometry">
            <mxPoint as="offset" />
          </mxGeometry>
        </mxCell>
        <mxCell id="uowi1JtS75DJO2FJJ9U8-78" value="success find user by id" style="rhombus;whiteSpace=wrap;html=1;" vertex="1" parent="1">
          <mxGeometry x="174" y="1725" width="80" height="80" as="geometry" />
        </mxCell>
        <mxCell id="uowi1JtS75DJO2FJJ9U8-80" value="return error" style="shape=parallelogram;perimeter=parallelogramPerimeter;whiteSpace=wrap;html=1;fixedSize=1;" vertex="1" parent="1">
          <mxGeometry x="314" y="1735" width="120" height="60" as="geometry" />
        </mxCell>
        <mxCell id="uowi1JtS75DJO2FJJ9U8-84" value="&lt;h1&gt;repository&lt;/h1&gt;&lt;div&gt;process in repository Layer&lt;/div&gt;" style="text;html=1;strokeColor=none;fillColor=none;spacing=5;spacingTop=-20;whiteSpace=wrap;overflow=hidden;rounded=0;" vertex="1" parent="1">
          <mxGeometry x="471" y="740" width="190" height="70" as="geometry" />
        </mxCell>
        <mxCell id="uowi1JtS75DJO2FJJ9U8-85" value="" style="edgeStyle=orthogonalEdgeStyle;rounded=0;orthogonalLoop=1;jettySize=auto;html=1;" edge="1" parent="1" source="uowi1JtS75DJO2FJJ9U8-86" target="uowi1JtS75DJO2FJJ9U8-90">
          <mxGeometry relative="1" as="geometry" />
        </mxCell>
        <mxCell id="uowi1JtS75DJO2FJJ9U8-86" value="data from controller" style="ellipse;whiteSpace=wrap;html=1;" vertex="1" parent="1">
          <mxGeometry x="536" y="810" width="120" height="80" as="geometry" />
        </mxCell>
        <mxCell id="uowi1JtS75DJO2FJJ9U8-87" value="" style="edgeStyle=orthogonalEdgeStyle;rounded=0;orthogonalLoop=1;jettySize=auto;html=1;" edge="1" parent="1">
          <mxGeometry relative="1" as="geometry">
            <mxPoint x="656" y="949" as="sourcePoint" />
            <mxPoint x="736" y="949" as="targetPoint" />
          </mxGeometry>
        </mxCell>
        <mxCell id="uowi1JtS75DJO2FJJ9U8-88" value="post" style="edgeLabel;html=1;align=center;verticalAlign=middle;resizable=0;points=[];" vertex="1" connectable="0" parent="uowi1JtS75DJO2FJJ9U8-87">
          <mxGeometry relative="1" as="geometry">
            <mxPoint as="offset" />
          </mxGeometry>
        </mxCell>
        <mxCell id="uowi1JtS75DJO2FJJ9U8-89" value="" style="edgeStyle=orthogonalEdgeStyle;rounded=0;orthogonalLoop=1;jettySize=auto;html=1;" edge="1" parent="1" source="uowi1JtS75DJO2FJJ9U8-90" target="uowi1JtS75DJO2FJJ9U8-97">
          <mxGeometry relative="1" as="geometry" />
        </mxCell>
        <mxCell id="uowi1JtS75DJO2FJJ9U8-90" value="do query create to table top up" style="rounded=0;whiteSpace=wrap;html=1;" vertex="1" parent="1">
          <mxGeometry x="536" y="935" width="120" height="60" as="geometry" />
        </mxCell>
        <mxCell id="uowi1JtS75DJO2FJJ9U8-91" value="" style="edgeStyle=orthogonalEdgeStyle;rounded=0;orthogonalLoop=1;jettySize=auto;html=1;" edge="1" parent="1" source="uowi1JtS75DJO2FJJ9U8-93" target="uowi1JtS75DJO2FJJ9U8-90">
          <mxGeometry relative="1" as="geometry" />
        </mxCell>
        <mxCell id="uowi1JtS75DJO2FJJ9U8-92" value="response" style="edgeLabel;html=1;align=center;verticalAlign=middle;resizable=0;points=[];" vertex="1" connectable="0" parent="uowi1JtS75DJO2FJJ9U8-91">
          <mxGeometry x="-0.1" y="2" relative="1" as="geometry">
            <mxPoint as="offset" />
          </mxGeometry>
        </mxCell>
        <mxCell id="uowi1JtS75DJO2FJJ9U8-93" value="create new data in table deposit_interest" style="shape=cylinder3;whiteSpace=wrap;html=1;boundedLbl=1;backgroundOutline=1;size=15;" vertex="1" parent="1">
          <mxGeometry x="726" y="907.5" width="115" height="115" as="geometry" />
        </mxCell>
        <mxCell id="uowi1JtS75DJO2FJJ9U8-94" value="" style="edgeStyle=orthogonalEdgeStyle;rounded=0;orthogonalLoop=1;jettySize=auto;html=1;" edge="1" parent="1" source="uowi1JtS75DJO2FJJ9U8-97" target="uowi1JtS75DJO2FJJ9U8-98">
          <mxGeometry relative="1" as="geometry" />
        </mxCell>
        <mxCell id="uowi1JtS75DJO2FJJ9U8-95" value="yes" style="edgeLabel;html=1;align=center;verticalAlign=middle;resizable=0;points=[];" vertex="1" connectable="0" parent="uowi1JtS75DJO2FJJ9U8-94">
          <mxGeometry x="-0.4571" y="-1" relative="1" as="geometry">
            <mxPoint as="offset" />
          </mxGeometry>
        </mxCell>
        <mxCell id="uowi1JtS75DJO2FJJ9U8-96" value="" style="edgeStyle=orthogonalEdgeStyle;rounded=0;orthogonalLoop=1;jettySize=auto;html=1;" edge="1" parent="1" source="uowi1JtS75DJO2FJJ9U8-97" target="uowi1JtS75DJO2FJJ9U8-99">
          <mxGeometry relative="1" as="geometry" />
        </mxCell>
        <mxCell id="uowi1JtS75DJO2FJJ9U8-97" value="error creating data" style="rhombus;whiteSpace=wrap;html=1;rounded=0;" vertex="1" parent="1">
          <mxGeometry x="556" y="1040" width="80" height="80" as="geometry" />
        </mxCell>
        <mxCell id="uowi1JtS75DJO2FJJ9U8-98" value="return error" style="shape=parallelogram;perimeter=parallelogramPerimeter;whiteSpace=wrap;html=1;fixedSize=1;rounded=0;" vertex="1" parent="1">
          <mxGeometry x="695" y="1050" width="120" height="60" as="geometry" />
        </mxCell>
        <mxCell id="uowi1JtS75DJO2FJJ9U8-99" value="return data of creating" style="shape=parallelogram;perimeter=parallelogramPerimeter;whiteSpace=wrap;html=1;fixedSize=1;rounded=0;" vertex="1" parent="1">
          <mxGeometry x="536" y="1160" width="120" height="60" as="geometry" />
        </mxCell>
        <mxCell id="uowi1JtS75DJO2FJJ9U8-116" value="&amp;gt; create_time(now)&lt;br&gt;&amp;gt;countdown_time = create_time + 60min&lt;br&gt;&amp;gt; status = &quot;waiting&quot;" style="rounded=0;whiteSpace=wrap;html=1;" vertex="1" parent="1">
          <mxGeometry x="154" y="1255" width="120" height="60" as="geometry" />
        </mxCell>
      </root>
    </mxGraphModel>
  </diagram>
  <diagram name="update" id="fmZBe2WzaXTkfu827Pgv">
    <mxGraphModel dx="880" dy="446" grid="1" gridSize="10" guides="1" tooltips="1" connect="1" arrows="1" fold="1" page="1" pageScale="1" pageWidth="850" pageHeight="1100" math="0" shadow="0">
      <root>
        <mxCell id="NMfBZ2aHkfKV-N4u24Jk-0" />
        <mxCell id="NMfBZ2aHkfKV-N4u24Jk-1" parent="NMfBZ2aHkfKV-N4u24Jk-0" />
        <mxCell id="NMfBZ2aHkfKV-N4u24Jk-2" value="&lt;h1&gt;Update Top_up&lt;/h1&gt;&lt;div&gt;top up transaction we assume that payment gateway give us notification&lt;/div&gt;" style="text;html=1;strokeColor=none;fillColor=none;spacing=5;spacingTop=-20;whiteSpace=wrap;overflow=hidden;rounded=0;" vertex="1" parent="NMfBZ2aHkfKV-N4u24Jk-1">
          <mxGeometry x="9" y="10" width="190" height="100" as="geometry" />
        </mxCell>
        <mxCell id="NMfBZ2aHkfKV-N4u24Jk-3" value="data :&lt;br&gt;- id&lt;br&gt;- status : accepted/failed" style="text;html=1;strokeColor=none;fillColor=none;align=center;verticalAlign=middle;whiteSpace=wrap;rounded=0;" vertex="1" parent="NMfBZ2aHkfKV-N4u24Jk-1">
          <mxGeometry x="210" y="60" width="120" height="50" as="geometry" />
        </mxCell>
        <mxCell id="NMfBZ2aHkfKV-N4u24Jk-4" value="" style="edgeStyle=orthogonalEdgeStyle;rounded=0;orthogonalLoop=1;jettySize=auto;html=1;" edge="1" parent="NMfBZ2aHkfKV-N4u24Jk-1">
          <mxGeometry relative="1" as="geometry">
            <mxPoint x="83" y="160" as="sourcePoint" />
            <mxPoint x="83" y="190" as="targetPoint" />
          </mxGeometry>
        </mxCell>
        <mxCell id="NMfBZ2aHkfKV-N4u24Jk-5" value="hit endpoint with data" style="ellipse;whiteSpace=wrap;html=1;" vertex="1" parent="NMfBZ2aHkfKV-N4u24Jk-1">
          <mxGeometry x="40" y="100" width="110" height="60" as="geometry" />
        </mxCell>
        <mxCell id="NMfBZ2aHkfKV-N4u24Jk-6" value="" style="edgeStyle=orthogonalEdgeStyle;rounded=0;orthogonalLoop=1;jettySize=auto;html=1;" edge="1" parent="NMfBZ2aHkfKV-N4u24Jk-1">
          <mxGeometry relative="1" as="geometry">
            <mxPoint x="83" y="250" as="sourcePoint" />
            <mxPoint x="83" y="300" as="targetPoint" />
          </mxGeometry>
        </mxCell>
        <mxCell id="NMfBZ2aHkfKV-N4u24Jk-7" value="" style="edgeStyle=orthogonalEdgeStyle;rounded=0;orthogonalLoop=1;jettySize=auto;html=1;" edge="1" parent="NMfBZ2aHkfKV-N4u24Jk-1" source="NMfBZ2aHkfKV-N4u24Jk-8" target="NMfBZ2aHkfKV-N4u24Jk-17">
          <mxGeometry relative="1" as="geometry" />
        </mxCell>
        <mxCell id="NMfBZ2aHkfKV-N4u24Jk-8" value="&#xa;&lt;span style=&quot;color: rgb(0, 0, 0); font-family: Helvetica; font-size: 12px; font-style: normal; font-variant-ligatures: normal; font-variant-caps: normal; font-weight: 400; letter-spacing: normal; orphans: 2; text-align: center; text-indent: 0px; text-transform: none; widows: 2; word-spacing: 0px; -webkit-text-stroke-width: 0px; background-color: rgb(251, 251, 251); text-decoration-thickness: initial; text-decoration-style: initial; text-decoration-color: initial; float: none; display: inline !important;&quot;&gt;process In controller&lt;/span&gt;&#xa;&#xa;" style="whiteSpace=wrap;html=1;" vertex="1" parent="NMfBZ2aHkfKV-N4u24Jk-1">
          <mxGeometry x="35" y="190" width="120" height="60" as="geometry" />
        </mxCell>
        <mxCell id="NMfBZ2aHkfKV-N4u24Jk-9" value="" style="edgeStyle=orthogonalEdgeStyle;rounded=0;orthogonalLoop=1;jettySize=auto;html=1;" edge="1" parent="NMfBZ2aHkfKV-N4u24Jk-1">
          <mxGeometry relative="1" as="geometry">
            <mxPoint x="81" y="360" as="sourcePoint" />
            <mxPoint x="81" y="400" as="targetPoint" />
          </mxGeometry>
        </mxCell>
        <mxCell id="NMfBZ2aHkfKV-N4u24Jk-10" value="" style="edgeStyle=orthogonalEdgeStyle;rounded=0;orthogonalLoop=1;jettySize=auto;html=1;" edge="1" parent="NMfBZ2aHkfKV-N4u24Jk-1">
          <mxGeometry relative="1" as="geometry">
            <mxPoint x="99" y="300" as="sourcePoint" />
            <mxPoint x="99" y="250" as="targetPoint" />
          </mxGeometry>
        </mxCell>
        <mxCell id="NMfBZ2aHkfKV-N4u24Jk-11" value="process In usecase" style="whiteSpace=wrap;html=1;" vertex="1" parent="NMfBZ2aHkfKV-N4u24Jk-1">
          <mxGeometry x="35" y="300" width="120" height="60" as="geometry" />
        </mxCell>
        <mxCell id="NMfBZ2aHkfKV-N4u24Jk-12" value="" style="edgeStyle=orthogonalEdgeStyle;rounded=0;orthogonalLoop=1;jettySize=auto;html=1;" edge="1" parent="NMfBZ2aHkfKV-N4u24Jk-1">
          <mxGeometry relative="1" as="geometry">
            <mxPoint x="81" y="460" as="sourcePoint" />
            <mxPoint x="81" y="500" as="targetPoint" />
          </mxGeometry>
        </mxCell>
        <mxCell id="NMfBZ2aHkfKV-N4u24Jk-13" value="" style="edgeStyle=orthogonalEdgeStyle;rounded=0;orthogonalLoop=1;jettySize=auto;html=1;" edge="1" parent="NMfBZ2aHkfKV-N4u24Jk-1">
          <mxGeometry relative="1" as="geometry">
            <mxPoint x="99" y="400" as="sourcePoint" />
            <mxPoint x="99" y="360" as="targetPoint" />
          </mxGeometry>
        </mxCell>
        <mxCell id="NMfBZ2aHkfKV-N4u24Jk-14" value="process In repository" style="whiteSpace=wrap;html=1;" vertex="1" parent="NMfBZ2aHkfKV-N4u24Jk-1">
          <mxGeometry x="35" y="400" width="120" height="60" as="geometry" />
        </mxCell>
        <mxCell id="NMfBZ2aHkfKV-N4u24Jk-15" value="" style="edgeStyle=orthogonalEdgeStyle;rounded=0;orthogonalLoop=1;jettySize=auto;html=1;" edge="1" parent="NMfBZ2aHkfKV-N4u24Jk-1">
          <mxGeometry relative="1" as="geometry">
            <mxPoint x="105" y="500" as="sourcePoint" />
            <mxPoint x="105" y="460" as="targetPoint" />
          </mxGeometry>
        </mxCell>
        <mxCell id="NMfBZ2aHkfKV-N4u24Jk-16" value="update in database" style="shape=cylinder3;whiteSpace=wrap;html=1;boundedLbl=1;backgroundOutline=1;size=15;" vertex="1" parent="NMfBZ2aHkfKV-N4u24Jk-1">
          <mxGeometry x="65" y="500" width="60" height="80" as="geometry" />
        </mxCell>
        <mxCell id="NMfBZ2aHkfKV-N4u24Jk-17" value="return api" style="shape=parallelogram;perimeter=parallelogramPerimeter;whiteSpace=wrap;html=1;fixedSize=1;" vertex="1" parent="NMfBZ2aHkfKV-N4u24Jk-1">
          <mxGeometry x="200" y="190" width="120" height="60" as="geometry" />
        </mxCell>
        <mxCell id="NMfBZ2aHkfKV-N4u24Jk-18" value="&lt;h1 style=&quot;border-color: var(--border-color);&quot;&gt;Controller&lt;/h1&gt;&lt;h1&gt;&lt;div style=&quot;border-color: var(--border-color); font-size: 12px; font-weight: 400;&quot;&gt;Process in controller layer&lt;/div&gt;&lt;/h1&gt;" style="text;html=1;strokeColor=none;fillColor=none;spacing=5;spacingTop=-20;whiteSpace=wrap;overflow=hidden;rounded=0;" vertex="1" parent="NMfBZ2aHkfKV-N4u24Jk-1">
          <mxGeometry x="420" y="30" width="190" height="80" as="geometry" />
        </mxCell>
        <mxCell id="NMfBZ2aHkfKV-N4u24Jk-19" value="" style="edgeStyle=orthogonalEdgeStyle;rounded=0;orthogonalLoop=1;jettySize=auto;html=1;" edge="1" parent="NMfBZ2aHkfKV-N4u24Jk-1" source="NMfBZ2aHkfKV-N4u24Jk-20" target="NMfBZ2aHkfKV-N4u24Jk-22">
          <mxGeometry relative="1" as="geometry" />
        </mxCell>
        <mxCell id="NMfBZ2aHkfKV-N4u24Jk-20" value="start" style="ellipse;whiteSpace=wrap;html=1;" vertex="1" parent="NMfBZ2aHkfKV-N4u24Jk-1">
          <mxGeometry x="600" y="55" width="70" height="40" as="geometry" />
        </mxCell>
        <mxCell id="NMfBZ2aHkfKV-N4u24Jk-21" value="" style="edgeStyle=orthogonalEdgeStyle;rounded=0;orthogonalLoop=1;jettySize=auto;html=1;" edge="1" parent="NMfBZ2aHkfKV-N4u24Jk-1" source="NMfBZ2aHkfKV-N4u24Jk-22" target="NMfBZ2aHkfKV-N4u24Jk-27">
          <mxGeometry relative="1" as="geometry" />
        </mxCell>
        <mxCell id="NMfBZ2aHkfKV-N4u24Jk-22" value="Accepting data in request body" style="whiteSpace=wrap;html=1;" vertex="1" parent="NMfBZ2aHkfKV-N4u24Jk-1">
          <mxGeometry x="582.5" y="140" width="105" height="45" as="geometry" />
        </mxCell>
        <mxCell id="NMfBZ2aHkfKV-N4u24Jk-23" value="" style="edgeStyle=orthogonalEdgeStyle;rounded=0;orthogonalLoop=1;jettySize=auto;html=1;" edge="1" parent="NMfBZ2aHkfKV-N4u24Jk-1" source="NMfBZ2aHkfKV-N4u24Jk-27" target="NMfBZ2aHkfKV-N4u24Jk-28">
          <mxGeometry relative="1" as="geometry" />
        </mxCell>
        <mxCell id="NMfBZ2aHkfKV-N4u24Jk-24" value="no" style="edgeLabel;html=1;align=center;verticalAlign=middle;resizable=0;points=[];" vertex="1" connectable="0" parent="NMfBZ2aHkfKV-N4u24Jk-23">
          <mxGeometry x="-0.0571" relative="1" as="geometry">
            <mxPoint y="1" as="offset" />
          </mxGeometry>
        </mxCell>
        <mxCell id="NMfBZ2aHkfKV-N4u24Jk-25" value="" style="edgeStyle=orthogonalEdgeStyle;rounded=0;orthogonalLoop=1;jettySize=auto;html=1;" edge="1" parent="NMfBZ2aHkfKV-N4u24Jk-1" source="NMfBZ2aHkfKV-N4u24Jk-27" target="NMfBZ2aHkfKV-N4u24Jk-31">
          <mxGeometry relative="1" as="geometry" />
        </mxCell>
        <mxCell id="NMfBZ2aHkfKV-N4u24Jk-26" value="go to usecase" style="edgeLabel;html=1;align=center;verticalAlign=middle;resizable=0;points=[];" vertex="1" connectable="0" parent="NMfBZ2aHkfKV-N4u24Jk-25">
          <mxGeometry x="-0.1444" y="4" relative="1" as="geometry">
            <mxPoint as="offset" />
          </mxGeometry>
        </mxCell>
        <mxCell id="NMfBZ2aHkfKV-N4u24Jk-27" value="success accept data" style="rhombus;whiteSpace=wrap;html=1;" vertex="1" parent="NMfBZ2aHkfKV-N4u24Jk-1">
          <mxGeometry x="595" y="247.5" width="80" height="80" as="geometry" />
        </mxCell>
        <mxCell id="NMfBZ2aHkfKV-N4u24Jk-28" value="return error to api" style="shape=parallelogram;perimeter=parallelogramPerimeter;whiteSpace=wrap;html=1;fixedSize=1;" vertex="1" parent="NMfBZ2aHkfKV-N4u24Jk-1">
          <mxGeometry x="722" y="257.5" width="120" height="60" as="geometry" />
        </mxCell>
        <mxCell id="NMfBZ2aHkfKV-N4u24Jk-29" value="" style="edgeStyle=orthogonalEdgeStyle;rounded=0;orthogonalLoop=1;jettySize=auto;html=1;" edge="1" parent="NMfBZ2aHkfKV-N4u24Jk-1" source="NMfBZ2aHkfKV-N4u24Jk-31">
          <mxGeometry relative="1" as="geometry">
            <mxPoint x="635" y="557.5" as="targetPoint" />
          </mxGeometry>
        </mxCell>
        <mxCell id="NMfBZ2aHkfKV-N4u24Jk-30" value="return result" style="edgeLabel;html=1;align=center;verticalAlign=middle;resizable=0;points=[];" vertex="1" connectable="0" parent="NMfBZ2aHkfKV-N4u24Jk-29">
          <mxGeometry x="0.0125" y="1" relative="1" as="geometry">
            <mxPoint as="offset" />
          </mxGeometry>
        </mxCell>
        <mxCell id="NMfBZ2aHkfKV-N4u24Jk-31" value="Process in usecase" style="whiteSpace=wrap;html=1;" vertex="1" parent="NMfBZ2aHkfKV-N4u24Jk-1">
          <mxGeometry x="575" y="417.5" width="120" height="60" as="geometry" />
        </mxCell>
        <mxCell id="NMfBZ2aHkfKV-N4u24Jk-32" value="" style="edgeStyle=orthogonalEdgeStyle;rounded=0;orthogonalLoop=1;jettySize=auto;html=1;" edge="1" parent="NMfBZ2aHkfKV-N4u24Jk-1" source="NMfBZ2aHkfKV-N4u24Jk-36" target="NMfBZ2aHkfKV-N4u24Jk-37">
          <mxGeometry relative="1" as="geometry" />
        </mxCell>
        <mxCell id="NMfBZ2aHkfKV-N4u24Jk-33" value="yes" style="edgeLabel;html=1;align=center;verticalAlign=middle;resizable=0;points=[];" vertex="1" connectable="0" parent="NMfBZ2aHkfKV-N4u24Jk-32">
          <mxGeometry x="-0.1714" y="1" relative="1" as="geometry">
            <mxPoint as="offset" />
          </mxGeometry>
        </mxCell>
        <mxCell id="NMfBZ2aHkfKV-N4u24Jk-34" value="" style="edgeStyle=orthogonalEdgeStyle;rounded=0;orthogonalLoop=1;jettySize=auto;html=1;" edge="1" parent="NMfBZ2aHkfKV-N4u24Jk-1" source="NMfBZ2aHkfKV-N4u24Jk-36" target="NMfBZ2aHkfKV-N4u24Jk-38">
          <mxGeometry relative="1" as="geometry" />
        </mxCell>
        <mxCell id="NMfBZ2aHkfKV-N4u24Jk-35" value="no" style="edgeLabel;html=1;align=center;verticalAlign=middle;resizable=0;points=[];" vertex="1" connectable="0" parent="NMfBZ2aHkfKV-N4u24Jk-34">
          <mxGeometry x="-0.1714" y="-2" relative="1" as="geometry">
            <mxPoint as="offset" />
          </mxGeometry>
        </mxCell>
        <mxCell id="NMfBZ2aHkfKV-N4u24Jk-36" value="get error resutl?" style="rhombus;whiteSpace=wrap;html=1;" vertex="1" parent="NMfBZ2aHkfKV-N4u24Jk-1">
          <mxGeometry x="595" y="560" width="80" height="80" as="geometry" />
        </mxCell>
        <mxCell id="NMfBZ2aHkfKV-N4u24Jk-37" value="return error to api" style="shape=parallelogram;perimeter=parallelogramPerimeter;whiteSpace=wrap;html=1;fixedSize=1;" vertex="1" parent="NMfBZ2aHkfKV-N4u24Jk-1">
          <mxGeometry x="415" y="570" width="120" height="60" as="geometry" />
        </mxCell>
        <mxCell id="NMfBZ2aHkfKV-N4u24Jk-38" value="return massage success delete data to API" style="shape=parallelogram;perimeter=parallelogramPerimeter;whiteSpace=wrap;html=1;fixedSize=1;" vertex="1" parent="NMfBZ2aHkfKV-N4u24Jk-1">
          <mxGeometry x="724" y="570" width="120" height="60" as="geometry" />
        </mxCell>
        <mxCell id="NMfBZ2aHkfKV-N4u24Jk-39" value="&lt;h1&gt;Usecase&lt;/h1&gt;&lt;div&gt;process in usecase layer&lt;/div&gt;" style="text;html=1;strokeColor=none;fillColor=none;spacing=5;spacingTop=-20;whiteSpace=wrap;overflow=hidden;rounded=0;" vertex="1" parent="NMfBZ2aHkfKV-N4u24Jk-1">
          <mxGeometry x="10" y="660" width="160" height="70" as="geometry" />
        </mxCell>
        <mxCell id="NMfBZ2aHkfKV-N4u24Jk-40" value="" style="edgeStyle=orthogonalEdgeStyle;rounded=0;orthogonalLoop=1;jettySize=auto;html=1;" edge="1" parent="NMfBZ2aHkfKV-N4u24Jk-1" source="NMfBZ2aHkfKV-N4u24Jk-42" target="NMfBZ2aHkfKV-N4u24Jk-50">
          <mxGeometry relative="1" as="geometry" />
        </mxCell>
        <mxCell id="NMfBZ2aHkfKV-N4u24Jk-41" value="no" style="edgeLabel;html=1;align=center;verticalAlign=middle;resizable=0;points=[];" vertex="1" connectable="0" parent="NMfBZ2aHkfKV-N4u24Jk-40">
          <mxGeometry x="-0.08" y="1" relative="1" as="geometry">
            <mxPoint as="offset" />
          </mxGeometry>
        </mxCell>
        <mxCell id="NMfBZ2aHkfKV-N4u24Jk-42" value="user.role == admin" style="rhombus;whiteSpace=wrap;html=1;" vertex="1" parent="NMfBZ2aHkfKV-N4u24Jk-1">
          <mxGeometry x="174" y="880" width="80" height="80" as="geometry" />
        </mxCell>
        <mxCell id="NMfBZ2aHkfKV-N4u24Jk-43" value="" style="edgeStyle=orthogonalEdgeStyle;rounded=0;orthogonalLoop=1;jettySize=auto;html=1;exitX=0.5;exitY=1;exitDx=0;exitDy=0;" edge="1" parent="NMfBZ2aHkfKV-N4u24Jk-1" source="NMfBZ2aHkfKV-N4u24Jk-42" target="NMfBZ2aHkfKV-N4u24Jk-49">
          <mxGeometry relative="1" as="geometry">
            <mxPoint x="214" y="1090" as="sourcePoint" />
          </mxGeometry>
        </mxCell>
        <mxCell id="NMfBZ2aHkfKV-N4u24Jk-44" value="yes" style="edgeLabel;html=1;align=center;verticalAlign=middle;resizable=0;points=[];" vertex="1" connectable="0" parent="NMfBZ2aHkfKV-N4u24Jk-43">
          <mxGeometry x="-0.2381" y="2" relative="1" as="geometry">
            <mxPoint as="offset" />
          </mxGeometry>
        </mxCell>
        <mxCell id="NMfBZ2aHkfKV-N4u24Jk-45" value="" style="edgeStyle=orthogonalEdgeStyle;rounded=0;orthogonalLoop=1;jettySize=auto;html=1;" edge="1" parent="NMfBZ2aHkfKV-N4u24Jk-1" source="NMfBZ2aHkfKV-N4u24Jk-49">
          <mxGeometry relative="1" as="geometry">
            <mxPoint x="314" y="1042" as="targetPoint" />
          </mxGeometry>
        </mxCell>
        <mxCell id="NMfBZ2aHkfKV-N4u24Jk-46" value="yes" style="edgeLabel;html=1;align=center;verticalAlign=middle;resizable=0;points=[];" vertex="1" connectable="0" parent="NMfBZ2aHkfKV-N4u24Jk-45">
          <mxGeometry x="0.0082" y="-5" relative="1" as="geometry">
            <mxPoint x="-2" as="offset" />
          </mxGeometry>
        </mxCell>
        <mxCell id="JCR9gYgruyGWsS4f4vJG-2" value="" style="edgeStyle=orthogonalEdgeStyle;rounded=0;orthogonalLoop=1;jettySize=auto;html=1;" edge="1" parent="NMfBZ2aHkfKV-N4u24Jk-1" source="NMfBZ2aHkfKV-N4u24Jk-49" target="NMfBZ2aHkfKV-N4u24Jk-60">
          <mxGeometry relative="1" as="geometry" />
        </mxCell>
        <mxCell id="NMfBZ2aHkfKV-N4u24Jk-49" value="status == nul" style="rhombus;whiteSpace=wrap;html=1;" vertex="1" parent="NMfBZ2aHkfKV-N4u24Jk-1">
          <mxGeometry x="174" y="1002" width="80" height="80" as="geometry" />
        </mxCell>
        <mxCell id="NMfBZ2aHkfKV-N4u24Jk-50" value="return : you are not allowed to do this." style="shape=parallelogram;perimeter=parallelogramPerimeter;whiteSpace=wrap;html=1;fixedSize=1;" vertex="1" parent="NMfBZ2aHkfKV-N4u24Jk-1">
          <mxGeometry x="294" y="890" width="120" height="60" as="geometry" />
        </mxCell>
        <mxCell id="NMfBZ2aHkfKV-N4u24Jk-51" value="top up amount required" style="shape=parallelogram;perimeter=parallelogramPerimeter;whiteSpace=wrap;html=1;fixedSize=1;" vertex="1" parent="NMfBZ2aHkfKV-N4u24Jk-1">
          <mxGeometry x="304" y="1012" width="120" height="60" as="geometry" />
        </mxCell>
        <mxCell id="NMfBZ2aHkfKV-N4u24Jk-59" value="" style="edgeStyle=orthogonalEdgeStyle;rounded=0;orthogonalLoop=1;jettySize=auto;html=1;" edge="1" parent="NMfBZ2aHkfKV-N4u24Jk-1" source="NMfBZ2aHkfKV-N4u24Jk-60" target="NMfBZ2aHkfKV-N4u24Jk-69">
          <mxGeometry relative="1" as="geometry" />
        </mxCell>
        <mxCell id="NMfBZ2aHkfKV-N4u24Jk-60" value="process update in repository" style="whiteSpace=wrap;html=1;" vertex="1" parent="NMfBZ2aHkfKV-N4u24Jk-1">
          <mxGeometry x="154" y="1140" width="120" height="60" as="geometry" />
        </mxCell>
        <mxCell id="NMfBZ2aHkfKV-N4u24Jk-61" value="usecase update data" style="text;html=1;strokeColor=none;fillColor=none;align=center;verticalAlign=middle;whiteSpace=wrap;rounded=0;" vertex="1" parent="NMfBZ2aHkfKV-N4u24Jk-1">
          <mxGeometry x="40" y="775" width="80" height="30" as="geometry" />
        </mxCell>
        <mxCell id="NMfBZ2aHkfKV-N4u24Jk-62" value="" style="edgeStyle=orthogonalEdgeStyle;rounded=0;orthogonalLoop=1;jettySize=auto;html=1;" edge="1" parent="NMfBZ2aHkfKV-N4u24Jk-1" source="NMfBZ2aHkfKV-N4u24Jk-63" target="NMfBZ2aHkfKV-N4u24Jk-42">
          <mxGeometry relative="1" as="geometry" />
        </mxCell>
        <mxCell id="NMfBZ2aHkfKV-N4u24Jk-63" value="data" style="ellipse;whiteSpace=wrap;html=1;" vertex="1" parent="NMfBZ2aHkfKV-N4u24Jk-1">
          <mxGeometry x="154" y="740" width="120" height="80" as="geometry" />
        </mxCell>
        <mxCell id="NMfBZ2aHkfKV-N4u24Jk-65" value="" style="edgeStyle=orthogonalEdgeStyle;rounded=0;orthogonalLoop=1;jettySize=auto;html=1;" edge="1" parent="NMfBZ2aHkfKV-N4u24Jk-1" source="NMfBZ2aHkfKV-N4u24Jk-69" target="NMfBZ2aHkfKV-N4u24Jk-70">
          <mxGeometry relative="1" as="geometry" />
        </mxCell>
        <mxCell id="NMfBZ2aHkfKV-N4u24Jk-66" value="no" style="edgeLabel;html=1;align=center;verticalAlign=middle;resizable=0;points=[];" vertex="1" connectable="0" parent="NMfBZ2aHkfKV-N4u24Jk-65">
          <mxGeometry x="-0.1429" y="-2" relative="1" as="geometry">
            <mxPoint as="offset" />
          </mxGeometry>
        </mxCell>
        <mxCell id="GjBWGIp-V6mX1sAY73Ak-7" value="" style="edgeStyle=orthogonalEdgeStyle;rounded=0;orthogonalLoop=1;jettySize=auto;html=1;" edge="1" parent="NMfBZ2aHkfKV-N4u24Jk-1" source="NMfBZ2aHkfKV-N4u24Jk-69" target="NMfBZ2aHkfKV-N4u24Jk-71">
          <mxGeometry relative="1" as="geometry" />
        </mxCell>
        <mxCell id="NMfBZ2aHkfKV-N4u24Jk-69" value="success update data" style="rhombus;whiteSpace=wrap;html=1;" vertex="1" parent="NMfBZ2aHkfKV-N4u24Jk-1">
          <mxGeometry x="174" y="1270" width="80" height="80" as="geometry" />
        </mxCell>
        <mxCell id="NMfBZ2aHkfKV-N4u24Jk-70" value="return error" style="shape=parallelogram;perimeter=parallelogramPerimeter;whiteSpace=wrap;html=1;fixedSize=1;" vertex="1" parent="NMfBZ2aHkfKV-N4u24Jk-1">
          <mxGeometry x="312" y="1280" width="120" height="60" as="geometry" />
        </mxCell>
        <mxCell id="NMfBZ2aHkfKV-N4u24Jk-71" value="return success update data" style="shape=parallelogram;perimeter=parallelogramPerimeter;whiteSpace=wrap;html=1;fixedSize=1;" vertex="1" parent="NMfBZ2aHkfKV-N4u24Jk-1">
          <mxGeometry x="154" y="1382" width="120" height="60" as="geometry" />
        </mxCell>
        <mxCell id="NMfBZ2aHkfKV-N4u24Jk-79" value="&lt;h1&gt;repository&lt;/h1&gt;&lt;div&gt;process in repository Layer&lt;/div&gt;" style="text;html=1;strokeColor=none;fillColor=none;spacing=5;spacingTop=-20;whiteSpace=wrap;overflow=hidden;rounded=0;" vertex="1" parent="NMfBZ2aHkfKV-N4u24Jk-1">
          <mxGeometry x="471" y="740" width="190" height="70" as="geometry" />
        </mxCell>
        <mxCell id="NMfBZ2aHkfKV-N4u24Jk-80" value="" style="edgeStyle=orthogonalEdgeStyle;rounded=0;orthogonalLoop=1;jettySize=auto;html=1;" edge="1" parent="NMfBZ2aHkfKV-N4u24Jk-1" source="NMfBZ2aHkfKV-N4u24Jk-81" target="NMfBZ2aHkfKV-N4u24Jk-85">
          <mxGeometry relative="1" as="geometry" />
        </mxCell>
        <mxCell id="NMfBZ2aHkfKV-N4u24Jk-81" value="data from controller" style="ellipse;whiteSpace=wrap;html=1;" vertex="1" parent="NMfBZ2aHkfKV-N4u24Jk-1">
          <mxGeometry x="536" y="810" width="120" height="80" as="geometry" />
        </mxCell>
        <mxCell id="NMfBZ2aHkfKV-N4u24Jk-82" value="" style="edgeStyle=orthogonalEdgeStyle;rounded=0;orthogonalLoop=1;jettySize=auto;html=1;" edge="1" parent="NMfBZ2aHkfKV-N4u24Jk-1">
          <mxGeometry relative="1" as="geometry">
            <mxPoint x="656" y="949" as="sourcePoint" />
            <mxPoint x="736" y="949" as="targetPoint" />
          </mxGeometry>
        </mxCell>
        <mxCell id="NMfBZ2aHkfKV-N4u24Jk-83" value="post" style="edgeLabel;html=1;align=center;verticalAlign=middle;resizable=0;points=[];" vertex="1" connectable="0" parent="NMfBZ2aHkfKV-N4u24Jk-82">
          <mxGeometry relative="1" as="geometry">
            <mxPoint as="offset" />
          </mxGeometry>
        </mxCell>
        <mxCell id="NMfBZ2aHkfKV-N4u24Jk-84" value="" style="edgeStyle=orthogonalEdgeStyle;rounded=0;orthogonalLoop=1;jettySize=auto;html=1;" edge="1" parent="NMfBZ2aHkfKV-N4u24Jk-1" source="NMfBZ2aHkfKV-N4u24Jk-85" target="NMfBZ2aHkfKV-N4u24Jk-92">
          <mxGeometry relative="1" as="geometry" />
        </mxCell>
        <mxCell id="NMfBZ2aHkfKV-N4u24Jk-85" value="do query update to table top up" style="rounded=0;whiteSpace=wrap;html=1;" vertex="1" parent="NMfBZ2aHkfKV-N4u24Jk-1">
          <mxGeometry x="536" y="935" width="120" height="60" as="geometry" />
        </mxCell>
        <mxCell id="NMfBZ2aHkfKV-N4u24Jk-86" value="" style="edgeStyle=orthogonalEdgeStyle;rounded=0;orthogonalLoop=1;jettySize=auto;html=1;" edge="1" parent="NMfBZ2aHkfKV-N4u24Jk-1" source="NMfBZ2aHkfKV-N4u24Jk-88" target="NMfBZ2aHkfKV-N4u24Jk-85">
          <mxGeometry relative="1" as="geometry" />
        </mxCell>
        <mxCell id="NMfBZ2aHkfKV-N4u24Jk-87" value="response" style="edgeLabel;html=1;align=center;verticalAlign=middle;resizable=0;points=[];" vertex="1" connectable="0" parent="NMfBZ2aHkfKV-N4u24Jk-86">
          <mxGeometry x="-0.1" y="2" relative="1" as="geometry">
            <mxPoint as="offset" />
          </mxGeometry>
        </mxCell>
        <mxCell id="NMfBZ2aHkfKV-N4u24Jk-88" value="table top up" style="shape=cylinder3;whiteSpace=wrap;html=1;boundedLbl=1;backgroundOutline=1;size=15;" vertex="1" parent="NMfBZ2aHkfKV-N4u24Jk-1">
          <mxGeometry x="726" y="907.5" width="115" height="115" as="geometry" />
        </mxCell>
        <mxCell id="NMfBZ2aHkfKV-N4u24Jk-89" value="" style="edgeStyle=orthogonalEdgeStyle;rounded=0;orthogonalLoop=1;jettySize=auto;html=1;" edge="1" parent="NMfBZ2aHkfKV-N4u24Jk-1" source="NMfBZ2aHkfKV-N4u24Jk-92" target="NMfBZ2aHkfKV-N4u24Jk-93">
          <mxGeometry relative="1" as="geometry" />
        </mxCell>
        <mxCell id="NMfBZ2aHkfKV-N4u24Jk-90" value="yes" style="edgeLabel;html=1;align=center;verticalAlign=middle;resizable=0;points=[];" vertex="1" connectable="0" parent="NMfBZ2aHkfKV-N4u24Jk-89">
          <mxGeometry x="-0.4571" y="-1" relative="1" as="geometry">
            <mxPoint as="offset" />
          </mxGeometry>
        </mxCell>
        <mxCell id="GjBWGIp-V6mX1sAY73Ak-22" value="" style="edgeStyle=orthogonalEdgeStyle;rounded=0;orthogonalLoop=1;jettySize=auto;html=1;" edge="1" parent="NMfBZ2aHkfKV-N4u24Jk-1" source="NMfBZ2aHkfKV-N4u24Jk-92" target="GjBWGIp-V6mX1sAY73Ak-17">
          <mxGeometry relative="1" as="geometry" />
        </mxCell>
        <mxCell id="NMfBZ2aHkfKV-N4u24Jk-92" value="error creating data" style="rhombus;whiteSpace=wrap;html=1;rounded=0;" vertex="1" parent="NMfBZ2aHkfKV-N4u24Jk-1">
          <mxGeometry x="556" y="1040" width="80" height="80" as="geometry" />
        </mxCell>
        <mxCell id="NMfBZ2aHkfKV-N4u24Jk-93" value="return error" style="shape=parallelogram;perimeter=parallelogramPerimeter;whiteSpace=wrap;html=1;fixedSize=1;rounded=0;" vertex="1" parent="NMfBZ2aHkfKV-N4u24Jk-1">
          <mxGeometry x="695" y="1050" width="120" height="60" as="geometry" />
        </mxCell>
        <mxCell id="GjBWGIp-V6mX1sAY73Ak-11" value="" style="edgeStyle=orthogonalEdgeStyle;rounded=0;orthogonalLoop=1;jettySize=auto;html=1;" edge="1" parent="NMfBZ2aHkfKV-N4u24Jk-1" source="GjBWGIp-V6mX1sAY73Ak-8" target="GjBWGIp-V6mX1sAY73Ak-10">
          <mxGeometry relative="1" as="geometry" />
        </mxCell>
        <mxCell id="GjBWGIp-V6mX1sAY73Ak-29" value="no" style="edgeLabel;html=1;align=center;verticalAlign=middle;resizable=0;points=[];" vertex="1" connectable="0" parent="GjBWGIp-V6mX1sAY73Ak-11">
          <mxGeometry x="-0.1074" y="1" relative="1" as="geometry">
            <mxPoint y="1" as="offset" />
          </mxGeometry>
        </mxCell>
        <mxCell id="GjBWGIp-V6mX1sAY73Ak-21" value="" style="edgeStyle=orthogonalEdgeStyle;rounded=0;orthogonalLoop=1;jettySize=auto;html=1;" edge="1" parent="NMfBZ2aHkfKV-N4u24Jk-1" source="GjBWGIp-V6mX1sAY73Ak-8" target="GjBWGIp-V6mX1sAY73Ak-12">
          <mxGeometry relative="1" as="geometry" />
        </mxCell>
        <mxCell id="GjBWGIp-V6mX1sAY73Ak-30" value="yes" style="edgeLabel;html=1;align=center;verticalAlign=middle;resizable=0;points=[];" vertex="1" connectable="0" parent="GjBWGIp-V6mX1sAY73Ak-21">
          <mxGeometry x="-0.1313" y="-1" relative="1" as="geometry">
            <mxPoint as="offset" />
          </mxGeometry>
        </mxCell>
        <mxCell id="GjBWGIp-V6mX1sAY73Ak-8" value="if status == success" style="rhombus;whiteSpace=wrap;html=1;rounded=0;" vertex="1" parent="NMfBZ2aHkfKV-N4u24Jk-1">
          <mxGeometry x="557" y="1251.5" width="80" height="80" as="geometry" />
        </mxCell>
        <mxCell id="GjBWGIp-V6mX1sAY73Ak-10" value="return success update data" style="shape=parallelogram;perimeter=parallelogramPerimeter;whiteSpace=wrap;html=1;fixedSize=1;rounded=0;" vertex="1" parent="NMfBZ2aHkfKV-N4u24Jk-1">
          <mxGeometry x="687.5" y="1261.5" width="120" height="60" as="geometry" />
        </mxCell>
        <mxCell id="GjBWGIp-V6mX1sAY73Ak-25" value="" style="edgeStyle=orthogonalEdgeStyle;rounded=0;orthogonalLoop=1;jettySize=auto;html=1;" edge="1" parent="NMfBZ2aHkfKV-N4u24Jk-1" source="GjBWGIp-V6mX1sAY73Ak-12" target="GjBWGIp-V6mX1sAY73Ak-24">
          <mxGeometry relative="1" as="geometry" />
        </mxCell>
        <mxCell id="GjBWGIp-V6mX1sAY73Ak-12" value="tambahkan di tabel saving (total_saving&lt;br&gt;) dengan data (top up amount)" style="whiteSpace=wrap;html=1;rounded=0;" vertex="1" parent="NMfBZ2aHkfKV-N4u24Jk-1">
          <mxGeometry x="537" y="1381" width="120" height="60" as="geometry" />
        </mxCell>
        <mxCell id="GjBWGIp-V6mX1sAY73Ak-15" value="" style="edgeStyle=orthogonalEdgeStyle;rounded=0;orthogonalLoop=1;jettySize=auto;html=1;" edge="1" parent="NMfBZ2aHkfKV-N4u24Jk-1">
          <mxGeometry relative="1" as="geometry">
            <mxPoint x="657" y="1167" as="sourcePoint" />
            <mxPoint x="737" y="1167" as="targetPoint" />
          </mxGeometry>
        </mxCell>
        <mxCell id="GjBWGIp-V6mX1sAY73Ak-16" value="post" style="edgeLabel;html=1;align=center;verticalAlign=middle;resizable=0;points=[];" vertex="1" connectable="0" parent="GjBWGIp-V6mX1sAY73Ak-15">
          <mxGeometry relative="1" as="geometry">
            <mxPoint as="offset" />
          </mxGeometry>
        </mxCell>
        <mxCell id="GjBWGIp-V6mX1sAY73Ak-23" value="" style="edgeStyle=orthogonalEdgeStyle;rounded=0;orthogonalLoop=1;jettySize=auto;html=1;" edge="1" parent="NMfBZ2aHkfKV-N4u24Jk-1" source="GjBWGIp-V6mX1sAY73Ak-17" target="GjBWGIp-V6mX1sAY73Ak-8">
          <mxGeometry relative="1" as="geometry" />
        </mxCell>
        <mxCell id="GjBWGIp-V6mX1sAY73Ak-17" value="do query get data top up" style="rounded=0;whiteSpace=wrap;html=1;" vertex="1" parent="NMfBZ2aHkfKV-N4u24Jk-1">
          <mxGeometry x="537" y="1153" width="120" height="60" as="geometry" />
        </mxCell>
        <mxCell id="GjBWGIp-V6mX1sAY73Ak-18" value="" style="edgeStyle=orthogonalEdgeStyle;rounded=0;orthogonalLoop=1;jettySize=auto;html=1;" edge="1" parent="NMfBZ2aHkfKV-N4u24Jk-1" source="GjBWGIp-V6mX1sAY73Ak-20" target="GjBWGIp-V6mX1sAY73Ak-17">
          <mxGeometry relative="1" as="geometry" />
        </mxCell>
        <mxCell id="GjBWGIp-V6mX1sAY73Ak-20" value="table top_up" style="shape=cylinder3;whiteSpace=wrap;html=1;boundedLbl=1;backgroundOutline=1;size=15;" vertex="1" parent="NMfBZ2aHkfKV-N4u24Jk-1">
          <mxGeometry x="727" y="1125.5" width="115" height="115" as="geometry" />
        </mxCell>
        <mxCell id="GjBWGIp-V6mX1sAY73Ak-27" value="" style="edgeStyle=orthogonalEdgeStyle;rounded=0;orthogonalLoop=1;jettySize=auto;html=1;" edge="1" parent="NMfBZ2aHkfKV-N4u24Jk-1">
          <mxGeometry relative="1" as="geometry">
            <mxPoint x="657" y="1500" as="sourcePoint" />
            <mxPoint x="720" y="1499.5" as="targetPoint" />
          </mxGeometry>
        </mxCell>
        <mxCell id="GjBWGIp-V6mX1sAY73Ak-28" value="update" style="edgeLabel;html=1;align=center;verticalAlign=middle;resizable=0;points=[];" vertex="1" connectable="0" parent="GjBWGIp-V6mX1sAY73Ak-27">
          <mxGeometry x="0.0236" y="1" relative="1" as="geometry">
            <mxPoint x="-1" as="offset" />
          </mxGeometry>
        </mxCell>
        <mxCell id="GjBWGIp-V6mX1sAY73Ak-36" value="" style="edgeStyle=orthogonalEdgeStyle;rounded=0;orthogonalLoop=1;jettySize=auto;html=1;" edge="1" parent="NMfBZ2aHkfKV-N4u24Jk-1" source="GjBWGIp-V6mX1sAY73Ak-24" target="GjBWGIp-V6mX1sAY73Ak-34">
          <mxGeometry relative="1" as="geometry" />
        </mxCell>
        <mxCell id="GjBWGIp-V6mX1sAY73Ak-24" value="query update ke data tota saving (tabel saving)" style="whiteSpace=wrap;html=1;rounded=0;" vertex="1" parent="NMfBZ2aHkfKV-N4u24Jk-1">
          <mxGeometry x="537" y="1480" width="120" height="60" as="geometry" />
        </mxCell>
        <mxCell id="GjBWGIp-V6mX1sAY73Ak-26" value="table saldo" style="shape=cylinder3;whiteSpace=wrap;html=1;boundedLbl=1;backgroundOutline=1;size=15;" vertex="1" parent="NMfBZ2aHkfKV-N4u24Jk-1">
          <mxGeometry x="720" y="1452" width="115" height="115" as="geometry" />
        </mxCell>
        <mxCell id="GjBWGIp-V6mX1sAY73Ak-32" value="" style="edgeStyle=orthogonalEdgeStyle;rounded=0;orthogonalLoop=1;jettySize=auto;html=1;" edge="1" parent="NMfBZ2aHkfKV-N4u24Jk-1" source="GjBWGIp-V6mX1sAY73Ak-34" target="GjBWGIp-V6mX1sAY73Ak-35">
          <mxGeometry relative="1" as="geometry" />
        </mxCell>
        <mxCell id="GjBWGIp-V6mX1sAY73Ak-33" value="yes" style="edgeLabel;html=1;align=center;verticalAlign=middle;resizable=0;points=[];" vertex="1" connectable="0" parent="GjBWGIp-V6mX1sAY73Ak-32">
          <mxGeometry x="-0.4571" y="-1" relative="1" as="geometry">
            <mxPoint as="offset" />
          </mxGeometry>
        </mxCell>
        <mxCell id="GjBWGIp-V6mX1sAY73Ak-38" value="" style="edgeStyle=orthogonalEdgeStyle;rounded=0;orthogonalLoop=1;jettySize=auto;html=1;" edge="1" parent="NMfBZ2aHkfKV-N4u24Jk-1" source="GjBWGIp-V6mX1sAY73Ak-34" target="GjBWGIp-V6mX1sAY73Ak-37">
          <mxGeometry relative="1" as="geometry" />
        </mxCell>
        <mxCell id="GjBWGIp-V6mX1sAY73Ak-39" value="no" style="edgeLabel;html=1;align=center;verticalAlign=middle;resizable=0;points=[];" vertex="1" connectable="0" parent="GjBWGIp-V6mX1sAY73Ak-38">
          <mxGeometry x="-0.35" y="2" relative="1" as="geometry">
            <mxPoint as="offset" />
          </mxGeometry>
        </mxCell>
        <mxCell id="GjBWGIp-V6mX1sAY73Ak-34" value="error creating data" style="rhombus;whiteSpace=wrap;html=1;rounded=0;" vertex="1" parent="NMfBZ2aHkfKV-N4u24Jk-1">
          <mxGeometry x="557" y="1588" width="80" height="80" as="geometry" />
        </mxCell>
        <mxCell id="GjBWGIp-V6mX1sAY73Ak-35" value="return error" style="shape=parallelogram;perimeter=parallelogramPerimeter;whiteSpace=wrap;html=1;fixedSize=1;rounded=0;" vertex="1" parent="NMfBZ2aHkfKV-N4u24Jk-1">
          <mxGeometry x="699" y="1598" width="120" height="60" as="geometry" />
        </mxCell>
        <mxCell id="GjBWGIp-V6mX1sAY73Ak-37" value="return success" style="shape=parallelogram;perimeter=parallelogramPerimeter;whiteSpace=wrap;html=1;fixedSize=1;rounded=0;" vertex="1" parent="NMfBZ2aHkfKV-N4u24Jk-1">
          <mxGeometry x="537" y="1720" width="120" height="60" as="geometry" />
        </mxCell>
      </root>
    </mxGraphModel>
  </diagram>
</mxfile>
